<svg xmlns="http://www.w3.org/2000/svg" xmlns:xlink="http://www.w3.org/1999/xlink" width="1024" zoomAndPan="magnify" viewBox="0 0 768 767.999994" height="1024" preserveAspectRatio="xMidYMid meet" version="1.0"><defs><filter x="0%" y="0%" width="100%" height="100%" id="65c417d5a7"><feColorMatrix values="0 0 0 0 1 0 0 0 0 1 0 0 0 0 1 0 0 0 1 0" color-interpolation-filters="sRGB"></feColorMatrix></filter><filter x="0%" y="0%" width="100%" height="100%" id="2aaf95acdb"><feColorMatrix values="0 0 0 0 1 0 0 0 0 1 0 0 0 0 1 0.2126 0.7152 0.0722 0 0" color-interpolation-filters="sRGB"></feColorMatrix></filter><clipPath id="ff7bf40213"><path d="M 36 0 L 732 0 C 741.546875 0 750.703125 3.792969 757.457031 10.542969 C 764.207031 17.296875 768 26.453125 768 36 L 768 732 C 768 751.882812 751.882812 768 732 768 L 36 768 C 26.453125 768 17.296875 764.207031 10.542969 757.457031 C 3.792969 750.703125 0 741.546875 0 732 L 0 36 C 0 16.117188 16.117188 0 36 0 Z M 36 0 " clip-rule="nonzero"></path></clipPath><clipPath id="4755f493a4"><path d="M 0 0 L 768 0 L 768 768 L 0 768 Z M 0 0 " clip-rule="nonzero"></path></clipPath><clipPath id="9873509275"><path d="M 36 0 L 732 0 C 741.546875 0 750.703125 3.792969 757.457031 10.542969 C 764.207031 17.296875 768 26.453125 768 36 L 768 732 C 768 751.882812 751.882812 768 732 768 L 36 768 C 26.453125 768 17.296875 764.207031 10.542969 757.457031 C 3.792969 750.703125 0 741.546875 0 732 L 0 36 C 0 16.117188 16.117188 0 36 0 Z M 36 0 " clip-rule="nonzero"></path></clipPath><clipPath id="b14dc92293"><rect x="0" width="768" y="0" height="768"></rect></clipPath><clipPath id="81e9b81d45"><path d="M 229.28125 0 L 539.03125 0 L 539.03125 768 L 229.28125 768 Z M 229.28125 0 " clip-rule="nonzero"></path></clipPath><mask id="c2ebc26794"><g filter="url(#65c417d5a7)"><g filter="url(#2aaf95acdb)" transform="matrix(1.3193, 0, 0, 1.305837, -2490.770034, -130.352446)"><image x="0" y="0" width="2399" height="788" preserveAspectRatio="xMidYMid meet"></image></g></g></mask></defs><g clip-path="url(#ff7bf40213)"><g transform="matrix(1, 0, 0, 1, 0, -0.000000000000057351)"><g clip-path="url(#b14dc92293)"><g clip-path="url(#4755f493a4)"><g clip-path="url(#9873509275)"><rect x="-168.96" width="1105.92" fill="#9b51e0" height="1105.919991" y="-168.959999" fill-opacity="1"></rect></g></g></g></g></g><g clip-path="url(#81e9b81d45)"><g mask="url(#c2ebc26794)"><g transform="matrix(1.3193, 0, 0, 1.305837, -2490.770034, -130.352446)"><image x="0" y="0" width="2399" height="788" preserveAspectRatio="xMidYMid meet"></image></g></g></g></svg>